<svg xmlns="http://www.w3.org/2000/svg" xml:space="preserve" width="168" height="252"><g style="display:inline">
<path d="M30 30h6v18h-6z" style="fill:#69564a"/>
<path d="M30 120h12v6H30Z" style="fill:#69564a;stroke-width:.994741"/>
<path d="M42 126h12v6H42Z" style="fill:#69564a;stroke-width:1.00534"/>
<path d="M36 132h6v6h-6z" style="fill:#69564a"/>
<path d="M30 138h6v12h-6z" style="fill:#69564a;stroke-width:1.0013"/>
<path d="M24 150h6v30h-6z" style="fill:#69564a;stroke-width:.999252"/>
<path d="M30 180h6v6h-6z" style="fill:#69564a;stroke-width:1.01092"/>
<path d="M36 186h6v30h-6zM42 216h6v12h-6zM48 228h18v6H48Z" style="fill:#69564a"/>
<path d="M66 210h6v18h-6z" style="fill:#69564a;stroke-width:.997649"/>
<path d="M72 204h18v6H72Z" style="fill:#69564a;stroke-width:.986771"/>
<path d="M90 210h6v12h-6zM96 222h6v6h-6zM102 228h24v6h-24z" style="fill:#69564a"/>
<path d="M126 216h6v12h-6Z" style="fill:#69564a;stroke-width:1.00473"/>
<path d="M132 186h6v30h-6z" style="fill:#69564a;stroke-width:.998279"/>
<path d="M138.01 204h11.98v6h-11.98z" style="fill:#69564a;stroke-width:1.00334"/>
<path d="M150 198h6v6h-6zM36 24h6v6h-6zM108 30h6v6h-6zM114 24h6v6h-6z" style="fill:#69564a"/>
<path d="M120 18h12v6h-12z" style="fill:#69564a;stroke-width:.816497"/>
<path d="M132 24h6v12h-6z" style="fill:#69564a"/>
<path d="M138 36h6v18h-6z" style="fill:#69564a;stroke-width:.774597"/>
<path d="M144 54h6v24h-6z" style="fill:#69564a;stroke-width:.755929"/>
<path d="M138 114h6v6h-6z" style="fill:#69564a;stroke-width:.707107"/>
<path d="M126 120h12v6h-12zM108 126h18v6h-18zM126 132h6v6h-6zM132 138h6v6h-6zM138 144h6v12h-6zM138 180h6v6h-6zM42 84h12v12H42ZM96 84h12v12H96ZM60 96h18v6H60ZM66 102h6v6h-6zM60 108h6v6h-6zM72 108h6v6h-6zM24 48h6v12h-6z" style="fill:#69564a"/>
<path d="M18 60h6v18h-6z" style="display:inline;fill:#69564a"/>
<path d="M12 78h6v24h-6z" style="fill:#69564a;stroke-width:1.1547"/>
<path d="M18 102h6v12h-6zM24 114h6v6h-6z" style="fill:#69564a"/>
<path d="M60 36h48v6H60Z" style="display:inline;fill:#69564a;stroke-width:1.06904"/>
<path d="M138 192h12v6h-12zM150 186h12v6h-12zM156 192h6v6h-6zM144 156h6v24h-6zM42 72.014h12V78H42ZM96 72h12v6.025H96ZM42 18h6v6h-6zM48 24h6v6h-6zM54 30h6v6h-6z" style="fill:#69564a"/>
<path d="M150 78h6v24h-6zM144 102h6v12h-6zM18 60h6v18h-6z" style="display:inline;fill:#69564a;fill-opacity:1"/></g><g style="display:inline">
<path d="M42 36h6v12h-6zM48 42h6v6h-6zM114 42h18v6h-18zM120 36h6v6h-6z" style="fill:#d6c8bf"/></g>
<path d="M54 126h54v6H54Z" style="fill:#d6c8bf;fill-opacity:1"/>
<path d="M114 162h6v18h-6zM120 180h6v6h-6zM126 186h6v6h-6zM42 162h6v30h-6zM36 180h6v6h-6z" style="display:inline;fill:#d6c8bf;fill-opacity:1"/><g style="display:inline;fill:#ebe7e4;fill-opacity:1">
<path d="M42 24h6v6h-6zM36 30h6v90h-6zM30 48h6v72h-6zM108 84h24v6h-24zM54 84h42v12H54ZM60 102h6v6h-6zM72 102h6v6h-6zM42 96h18v30H42ZM60 114h6v12h-6zM66 108h6v18h-6zM72 114h6v12h-6zM78 120h48v6H78ZM78 96h54v24H78ZM30 150h6v30h-6zM36 138h6v42h-6zM120 132h6v48h-6zM126 138h6v48h-6zM132 144h6v42h-6zM138 156h6v24h-6zM42 132h78v30H42ZM48 162h66v18H48ZM48 180h72v6H48ZM48 186h78v6H48ZM42 192h6v24h-6zM48 192h18v36H48ZM66 192h6v18h-6zM90 204h42v6H90ZM96 210h6v12h-6zM102 210h30v6h-30zM102 216h24v12h-24zM72 192h60v12H72ZM24 60h6v54h-6zM18 78h6v24h-6zM138 198h11.99v6H138ZM150 192h6v6h-6zM42 30h12v6H42ZM48 36h12v6H48ZM54 42h60v6H54ZM126 36h12v6h-12zM132 42h6v6h-6zM42 48h96v24H42ZM132 72h6v48h-6zM108 90h24v6h-24zM108 72h24v12h-24zM54 72h42v6.025H54Z"/>
<path d="M42 78h66v6H42ZM108 36h12v6h-12zM114 30h18v6h-18zM120 24h12v6h-12zM138 54h6v60h-6zM144 78h6v24h-6z"/>
<path d="M108 96h12v6h-12zM30 96h12v6H30Z" style="fill:#e6bcbc"/></g>
</svg>