<svg xmlns="http://www.w3.org/2000/svg" width="64" height="64">
<path d="M14 8h8v4h-8zM22 12h4v4h-4zM26 16h4v4h-4zM30 16h4v4h-4zM34 16h4v4h-4zM38 12h4v4h-4zM42 8h4v4h-4zM46 8h4v4h-4zM50 12h4v4h-4zM50 16h4v4h-4zM50 20h4v4h-4zM54 24h4v4h-4zM50 28h4v4h-4zM54 28h4v4h-4zM58 28h4v4h-4zM54 32h4v4h-4zM54 36h4v4h-4zM50 36h4v4h-4zM58 36h4v4h-4zM54 40h4v4h-4zM50 44h4v4h-4zM46 48h4v4h-4zM42 52h4v4h-4zM38 52h4v4h-4zM34 52h4v4h-4zM30 52h4v4h-4zM26 52h4v4h-4zM22 52h4v4h-4zM18 52h4v4h-4zM14 48h4v4h-4zM10 44h4v4h-4zM6 40h4v4H6ZM6 36h4v4H6ZM2 36h4v4H2ZM10 36h4v4h-4zM6 32h4v4H6ZM6 28h4v4H6ZM2 28h4v4H2ZM10 28h4v4h-4zM6 24h4v4H6ZM10 20h4v4h-4zM10 16h4v4h-4zM10 12h4v4h-4zM18 32h4v4h-4zM22 32h4v4h-4zM26 40h4v4h-4zM30 36h4v4h-4zM34 40h4v4h-4zM38 32h4v4h-4zM42 32h4v4h-4z" style="fill:#5b504e"/>
<path d="M14 12h4v4h-4zM18 12h4v4h-4zM14 16h4v4h-4zM18 16h4v4h-4zM22 16h4v4h-4zM14 20h4v4h-4zM18 20h4v4h-4zM22 20h4v4h-4zM26 20h4v4h-4zM10 24h4v4h-4zM14 24h4v4h-4zM18 24h4v4h-4zM22 24h4v4h-4zM26 24h4v4h-4zM14 28h4v4h-4zM18 28h4v4h-4zM22 28h4v4h-4zM26 28h4v4h-4zM30 28h4v4h-4zM30 32h4v4h-4zM26 32h4v4h-4zM14 32h4v4h-4zM10 32h4v4h-4zM14 36h4v4h-4zM18 36h4v4h-4zM22 36h4v4h-4zM26 36h4v4h-4zM34 36h4v4h-4zM10 40h4v4h-4zM14 40h4v4h-4zM18 40h4v4h-4zM22 40h4v4h-4zM30 40h4v4h-4zM38 40h4v4h-4zM42 40h4v4h-4zM46 44h4v4h-4zM42 44h4v4h-4zM38 44h4v4h-4zM34 44h4v4h-4zM30 44h4v4h-4zM26 44h4v4h-4zM22 44h4v4h-4zM18 44h4v4h-4zM14 44h4v4h-4zM18 48h4v4h-4zM22 48h4v4h-4zM26 48h4v4h-4zM30 48h4v4h-4zM34 48h4v4h-4zM38 48h4v4h-4z" style="fill:ivory"/>
<path d="M42 48h4v4h-4z" style="fill:ivory;fill-opacity:1"/>
<path d="M30 20h4v4h-4zM34 20h4v4h-4zM38 16h4v4h-4zM42 12h4v4h-4zM46 12h4v4h-4zM42 16h4v4h-4zM46 16h4v4h-4zM46 20h4v4h-4zM42 20h4v4h-4zM38 20h4v4h-4zM50 24h4v4h-4zM46 24h4v4h-4zM42 24h4v4h-4zM38 24h4v4h-4zM34 24h4v4h-4zM30 24h4v4h-4zM34 28h4v4h-4zM38 28h4v4h-4zM42 28h4v4h-4zM46 28h4v4h-4zM50 32h4v4h-4zM46 32h4v4h-4zM34 32h4v4h-4zM38 36h4v4h-4zM42 36h4v4h-4zM46 36h4v4h-4zM46 40h4v4h-4zM50 40h4v4h-4z" style="fill:#a9b388"/>
</svg>